<svg xmlns="http://www.w3.org/2000/svg" viewBox="0 0 1200 360" role="img" aria-labelledby="title description">
  <title id="title">VolumeDivergence strategy logic</title>
  <desc id="description">Price pivots versus normalized volume → confirmed divergence. Bullish divergence → LONG; bearish divergence → SHORT.</desc>
  <defs>
    <linearGradient id="background" x1="0" y1="0" x2="1" y2="1">
      <stop offset="0%" stop-color="#08111f" />
      <stop offset="100%" stop-color="#111b32" />
    </linearGradient>
    <filter id="shadow" x="-20%" y="-20%" width="140%" height="150%">
      <feDropShadow dx="0" dy="8" stdDeviation="10" flood-color="#020617" flood-opacity="0.45" />
    </filter>
    <marker id="arrowhead" markerWidth="8" markerHeight="8" refX="6" refY="3" orient="auto">
      <path d="M 0 0 L 6 3 L 0 6 Z" fill="#64748b" />
    </marker>
    <style>
      .card { fill: #111c31; stroke: #334155; stroke-width: 1.5; filter: url(#shadow); }
      .divider { stroke: #26364f; stroke-width: 1; }
      .arrow { fill: none; stroke: #64748b; stroke-width: 2; }
      .title { fill: #f8fafc; font: 700 30px Inter, ui-sans-serif, system-ui, sans-serif; }
      .subtitle { fill: #94a3b8; font: 400 16px Inter, ui-sans-serif, system-ui, sans-serif; }
      .step-number { fill: #08111f; font: 800 13px Inter, ui-sans-serif, system-ui, sans-serif; }
      .step-title { fill: #f8fafc; font: 650 16px Inter, ui-sans-serif, system-ui, sans-serif; }
      .step-copy { fill: #cbd5e1; font: 400 14px Inter, ui-sans-serif, system-ui, sans-serif; }
      .footer { fill: #94a3b8; font: 500 15px Inter, ui-sans-serif, system-ui, sans-serif; }
      .brand { fill: #475569; font: 600 13px Inter, ui-sans-serif, system-ui, sans-serif; letter-spacing: 0.08em; }
    </style>
  </defs>
  <rect width="1200" height="360" rx="24" fill="url(#background)" />
  <text x="32" y="48" class="title">VolumeDivergence</text>
  <text x="32" y="78" class="subtitle">Price pivots versus normalized volume → confirmed divergence</text>
  <text x="1168" y="48" text-anchor="end" class="brand">TRADEJS</text>
    <g>
      <rect x="32" y="120" width="192" height="150" rx="18" class="card" />
      <rect x="32" y="120" width="192" height="6" rx="3" fill="#22d3ee" />
      <circle cx="56" cy="148" r="13" fill="#22d3ee" />
      <text x="56" y="153" text-anchor="middle" class="step-number">1</text>
      <text x="79" y="154" class="step-title">Normalize</text>
      <path d="M 48 169 H 208" class="divider" />
      <text x="50" y="197" class="step-copy">
      <tspan x="50" dy="0">Price + volume</tspan>
      <tspan x="50" dy="22">Rolling window</tspan>
      </text>
    </g>
    <path d="M 224 195 H 254" class="arrow" marker-end="url(#arrowhead)" />
    <g>
      <rect x="268" y="120" width="192" height="150" rx="18" class="card" />
      <rect x="268" y="120" width="192" height="6" rx="3" fill="#60a5fa" />
      <circle cx="292" cy="148" r="13" fill="#60a5fa" />
      <text x="292" y="153" text-anchor="middle" class="step-number">2</text>
      <text x="315" y="154" class="step-title">Pair pivots</text>
      <path d="M 284 169 H 444" class="divider" />
      <text x="286" y="197" class="step-copy">
      <tspan x="286" dy="0">Spacing bounds</tspan>
      <tspan x="286" dy="22">Bull / bear shape</tspan>
      </text>
    </g>
    <path d="M 460 195 H 490" class="arrow" marker-end="url(#arrowhead)" />
    <g>
      <rect x="504" y="120" width="192" height="150" rx="18" class="card" />
      <rect x="504" y="120" width="192" height="6" rx="3" fill="#f59e0b" />
      <circle cx="528" cy="148" r="13" fill="#f59e0b" />
      <text x="528" y="153" text-anchor="middle" class="step-number">3</text>
      <text x="551" y="154" class="step-title">Score divergence</text>
      <path d="M 520 169 H 680" class="divider" />
      <text x="522" y="197" class="step-copy">
      <tspan x="522" dy="0">Price displacement</tspan>
      <tspan x="522" dy="22">Volume mismatch</tspan>
      </text>
    </g>
    <path d="M 696 195 H 726" class="arrow" marker-end="url(#arrowhead)" />
    <g>
      <rect x="740" y="120" width="192" height="150" rx="18" class="card" />
      <rect x="740" y="120" width="192" height="6" rx="3" fill="#c084fc" />
      <circle cx="764" cy="148" r="13" fill="#c084fc" />
      <text x="764" y="153" text-anchor="middle" class="step-number">4</text>
      <text x="787" y="154" class="step-title">Confirm</text>
      <path d="M 756 169 H 916" class="divider" />
      <text x="758" y="197" class="step-copy">
      <tspan x="758" dy="0">Level reclaim</tspan>
      <tspan x="758" dy="22">Quality + retest</tspan>
      </text>
    </g>
    <path d="M 932 195 H 962" class="arrow" marker-end="url(#arrowhead)" />
    <g>
      <rect x="976" y="120" width="192" height="150" rx="18" class="card" />
      <rect x="976" y="120" width="192" height="6" rx="3" fill="#34d399" />
      <circle cx="1000" cy="148" r="13" fill="#34d399" />
      <text x="1000" y="153" text-anchor="middle" class="step-number">5</text>
      <text x="1023" y="154" class="step-title">Order plan</text>
      <path d="M 992 169 H 1152" class="divider" />
      <text x="994" y="197" class="step-copy">
      <tspan x="994" dy="0">Pivot / ATR stop</tspan>
      <tspan x="994" dy="22">R-multiple target</tspan>
      </text>
    </g>
  <text x="32" y="322" class="footer">Bullish divergence → LONG; bearish divergence → SHORT</text>
</svg>
